<svg xmlns="http://www.w3.org/2000/svg" width="800" height="600"><path fill="#ccc" d="M318 166.845c0 3.952-2.826 7.155-6.312 7.155h-183.376c-3.486 0-6.312-3.203-6.312-7.155v-44.69c0-3.952 2.826-7.155 6.312-7.155h183.377c3.486 0 6.312 3.203 6.312 7.155v44.69z"/><path fill="#ccc" d="M482 325.846c0 3.951 2.825 7.154 6.312 7.154h183.377c3.485 0 6.312-3.203 6.312-7.154v-44.691c0-3.951-2.826-7.154-6.312-7.154h-183.377c-3.486 0-6.312 3.203-6.312 7.154v44.691z"/><path fill="#ccc" d="M318 428.846c0 3.951-2.826 7.154-6.312 7.154h-183.376c-3.486 0-6.312-3.203-6.312-7.154v-44.691c0-3.951 2.826-7.154 6.312-7.154h183.377c3.486 0 6.312 3.203 6.312 7.154v44.691z"/><path fill="#ccc" d="M482 271.846c0 3.951 2.825 7.154 6.312 7.154h183.377c3.485 0 6.312-3.203 6.312-7.154v-44.691c0-3.951-2.826-7.154-6.312-7.154h-183.377c-3.486 0-6.312 3.203-6.312 7.154v44.691z"/><circle fill="#ccc" cx="400" cy="292" r="262.519"/><circle fill="#fff" cx="400" cy="292" r="234.059"/><path fill="#38AEDD" d="M314 163.026c0 3.299-2.687 5.974-6 5.974h-174c-3.313 0-6-2.674-6-5.974v-37.053c0-3.299 2.687-5.974 6-5.974h174c3.313 0 6 2.674 6 5.974v37.053z"/><rect x="313" y="140" fill="#38AEDD" width="80" height="8"/><path fill="#38AEDD" d="M314 425.026c0 3.3-2.687 5.974-6 5.974h-174c-3.313 0-6-2.674-6-5.974v-37.053c0-3.3 2.687-5.974 6-5.974h174c3.313 0 6 2.674 6 5.974v37.053z"/><rect x="313" y="402" fill="#38AEDD" width="80" height="8"/><path fill="#E22E07" d="M486 268.026c0 3.3 2.687 5.974 6 5.974h174c3.313 0 6-2.674 6-5.974v-37.053c0-3.3-2.687-5.974-6-5.974h-174c-3.313 0-6 2.674-6 5.974v37.053z"/><path fill="#E22E07" d="M486 322.026c0 3.3 2.687 5.974 6 5.974h174c3.313 0 6-2.674 6-5.974v-37.053c0-3.3-2.687-5.974-6-5.974h-174c-3.313 0-6 2.674-6 5.974v37.053z"/><rect x="407" y="245" fill="#E22E07" width="80" height="8"/><defs><filter id="a" filterUnits="userSpaceOnUse" x="387" y="55" width="26" height="474"><feColorMatrix values="1 0 0 0 0 0 1 0 0 0 0 0 1 0 0 0 0 0 1 0"/></filter></defs><mask maskUnits="userSpaceOnUse" x="387" y="55" width="26" height="474" id="b"><ellipse fill="#fff" cx="400" cy="292" rx="438.86" ry="234.059" filter="url(#a)"/></mask><rect x="387" y="55" mask="url(#b)" fill="#999" width="26" height="474"/></svg>